<svg xmlns="http://www.w3.org/2000/svg" width="18.33" height="3.54" viewBox="0 0 18.33 3.54">
  <path id="icon-divider" d="M5.6-1.65A1.835,1.835,0,0,0,7.365.12a1.84,1.84,0,0,0,1.8-1.77,1.84,1.84,0,0,0-1.8-1.77A1.835,1.835,0,0,0,5.6-1.65Zm-7.41,0A1.835,1.835,0,0,0-.045.12a1.84,1.84,0,0,0,1.8-1.77,1.84,1.84,0,0,0-1.8-1.77A1.835,1.835,0,0,0-1.815-1.65Zm-7.35,0A1.835,1.835,0,0,0-7.395.12,1.84,1.84,0,0,0-5.6-1.65a1.84,1.84,0,0,0-1.8-1.77A1.835,1.835,0,0,0-9.165-1.65Z" transform="translate(9.165 3.42)" fill="#dbcba6"/>
</svg>
